<svg width="123" height="109" viewBox="0 0 123 109" fill="none" xmlns="http://www.w3.org/2000/svg">
<path d="M80.4902 19.2838C80.4902 14.1698 78.4584 9.26519 74.8429 5.64847C71.2262 2.03175 66.3204 -2.45189e-06 61.2064 -2.67543e-06C56.0925 -2.89897e-06 51.1866 2.03181 47.5699 5.64847C43.9544 9.26519 41.9226 14.1698 41.9226 19.2838C41.9226 24.3989 43.9545 29.3036 47.5699 32.9203C51.1866 36.537 56.0925 38.5688 61.2064 38.5688C66.3192 38.5641 71.2214 36.5311 74.8373 32.9155C78.4531 29.2999 80.4866 24.3977 80.4902 19.2838ZM46.9522 19.2838C46.9522 15.5045 48.4541 11.8785 51.1267 9.2056C53.8007 6.53279 57.4256 5.031 61.2061 5.031C64.9867 5.031 68.6115 6.53291 71.2855 9.2056C73.9583 11.8784 75.4601 15.5045 75.4601 19.2838C75.4601 23.0643 73.9582 26.6903 71.2855 29.3632C68.6115 32.036 64.9867 33.5378 61.2061 33.5378C57.4268 33.5331 53.8041 32.03 51.1324 29.3584C48.4596 26.6856 46.9569 23.0634 46.9522 19.2838ZM23.7615 98.6702C24.6107 98.2432 25.1464 97.3741 25.1464 96.4231C25.1464 95.4722 24.6107 94.6031 23.7615 94.1761L3.63895 84.1141C2.85874 83.7257 1.93468 83.7667 1.19307 84.2252C0.452633 84.6826 0.00111778 85.4909 -4.95513e-05 86.3611L-5.0431e-05 106.485C0.00111683 107.355 0.452632 108.163 1.19307 108.621C1.93468 109.079 2.85874 109.12 3.63895 108.732L23.7615 98.6702ZM5.02958 90.4366L17.0203 96.4231L5.03078 102.41L5.02958 90.4366ZM73.7826 96.4231C73.7826 93.087 72.4573 89.8892 70.0991 87.5298C67.7398 85.1717 64.5417 83.8463 61.2058 83.8463C57.87 83.8463 54.6719 85.1716 52.3125 87.5298C49.9544 89.8891 48.6291 93.0873 48.6291 96.4231C48.6291 99.759 49.9543 102.957 52.3125 105.316C54.6719 107.675 57.87 109 61.2058 109C64.5396 108.995 67.7365 107.669 70.0946 105.312C72.4516 102.954 73.7781 99.7569 73.7826 96.4231ZM53.6601 96.4231C53.6601 94.4217 54.4543 92.5022 55.8697 91.087C57.285 89.6716 59.2046 88.8774 61.2058 88.8774C63.207 88.8774 65.1268 89.6716 66.5419 91.087C67.9573 92.5023 68.7515 94.4219 68.7515 96.4231C68.7515 98.4243 67.9573 100.344 66.5419 101.759C65.1266 103.175 63.207 103.969 61.2058 103.969C59.2046 103.969 57.2848 103.175 55.8697 101.759C54.4543 100.344 53.6601 98.4243 53.6601 96.4231ZM122.413 106.485L122.412 86.3614C122.412 84.973 121.287 83.8465 119.897 83.8465L99.7745 83.8465C98.3849 83.8465 97.2585 84.973 97.2585 86.3614L97.2585 106.485C97.2585 107.874 98.3849 109 99.7745 109L119.897 109C121.287 109 122.412 107.874 122.412 106.485L122.413 106.485ZM102.291 103.97L102.291 88.8787L117.382 88.8787L117.382 103.97L102.291 103.97ZM107.322 63.7246L63.7221 63.7246L63.7209 77.9765C63.7209 79.3661 62.5957 80.4925 61.206 80.4925C59.8164 80.4925 58.6912 79.3661 58.6912 77.9765L58.6912 63.7234L15.0917 63.7234L15.0917 77.9765C15.0917 79.3661 13.9653 80.4925 12.5768 80.4925C11.1872 80.4925 10.0608 79.3661 10.0608 77.9765L10.0608 61.2074C10.0608 59.819 11.1872 58.6925 12.5768 58.6925L58.6916 58.6926L58.6916 44.4383C58.6916 43.0498 59.8169 41.9234 61.2065 41.9234C62.5961 41.9234 63.7214 43.0498 63.7214 44.4383L63.7214 58.6926L109.836 58.6926C111.226 58.6926 112.352 59.819 112.352 61.2074L112.352 77.9765C112.352 79.3661 111.226 80.4925 109.836 80.4925C108.448 80.4925 107.321 79.3661 107.321 77.9765L107.322 63.7246Z" fill="white"/>
</svg>
