<svg width="321" height="122" viewBox="0 0 321 122" fill="none" xmlns="http://www.w3.org/2000/svg">
<path d="M100.57 78.3511C97.1947 78.3511 94.1738 77.607 91.4903 76.1018C88.8238 74.5967 86.7142 72.5335 85.1784 69.8953C83.6425 67.2571 82.8662 64.2637 82.8662 60.9322C82.8662 57.6006 83.6425 54.5565 85.1784 51.969C86.7142 49.3816 88.8069 47.3353 91.4566 45.8301C94.1063 44.325 97.1441 43.5809 100.57 43.5809C103.996 43.5809 106.966 44.325 109.65 45.7963C112.316 47.2676 114.409 49.3139 115.928 51.9352C117.447 54.5565 118.207 57.5498 118.207 60.9322C118.207 64.3145 117.447 67.3078 115.928 69.9291C114.409 72.5504 112.316 74.5967 109.65 76.1018C106.983 77.607 103.946 78.3511 100.57 78.3511ZM100.57 72.9563C102.747 72.9563 104.705 72.4658 106.443 71.485C108.182 70.5041 109.532 69.1004 110.511 67.274C111.49 65.4475 111.979 63.3505 111.979 60.9491C111.979 58.5476 111.49 56.3999 110.511 54.6241C109.532 52.8484 108.165 51.4617 106.443 50.4808C104.705 49.4999 102.747 49.0095 100.57 49.0095C98.393 49.0095 96.4522 49.4999 94.7307 50.4808C93.0261 51.4617 91.6591 52.8484 90.6296 54.6241C89.6001 56.3999 89.0938 58.5138 89.0938 60.9491C89.0938 63.3843 89.6001 65.4645 90.6296 67.274C91.6591 69.1004 93.0261 70.5041 94.7307 71.485C96.4353 72.4658 98.393 72.9563 100.57 72.9563Z" fill="white"/>
<path d="M128.788 77.9621V43.9022H134.695V53.1528L134.121 50.836C135.067 48.4853 136.636 46.6757 138.864 45.4412C141.092 44.2066 143.826 43.5809 147.066 43.5809V49.5507C146.813 49.5169 146.56 49.483 146.324 49.483H145.648C142.357 49.483 139.742 50.4639 137.818 52.4426C135.894 54.4212 134.932 57.2624 134.932 60.9829V77.9452H128.771L128.788 77.9621Z" fill="white"/>
<path d="M170.474 76.5584C167.183 76.5584 164.247 75.8651 161.648 74.4783C159.049 73.0916 157.007 71.1467 155.488 68.6607C153.969 66.1747 153.209 63.2998 153.209 60.0528C153.209 56.8057 153.969 53.88 155.488 51.411C157.007 48.9419 159.066 47.0309 161.648 45.661C164.23 44.2912 167.166 43.5978 170.474 43.5978C173.377 43.5978 176.027 44.1897 178.423 45.3566C180.82 46.5404 182.727 48.35 184.162 50.7852C185.596 53.2205 186.305 56.3153 186.305 60.0358C186.305 63.7564 185.596 66.7836 184.162 69.2188C182.727 71.6541 180.82 73.4974 178.423 74.7151C176.027 75.9327 173.377 76.5415 170.474 76.5415V76.5584ZM171.251 90.8318C168.128 90.8318 165.107 90.3921 162.171 89.5127C159.234 88.6333 156.855 87.3818 155.015 85.7583L157.969 81.0062C159.555 82.376 161.496 83.4584 163.808 84.2532C166.12 85.048 168.533 85.437 171.048 85.437C175.065 85.437 178.018 84.49 179.892 82.6128C181.765 80.7356 182.71 77.8606 182.71 74.0048V66.8005L183.351 60.0528L183.031 53.2374V43.9191H188.87V73.3452C188.87 79.3488 187.368 83.7628 184.381 86.587C181.394 89.4112 177.006 90.8318 171.234 90.8318H171.251ZM171.183 71.1637C173.445 71.1637 175.453 70.6901 177.208 69.7431C178.963 68.796 180.347 67.4938 181.343 65.8196C182.356 64.1454 182.845 62.2174 182.845 60.0358C182.845 57.8543 182.339 55.9263 181.343 54.2521C180.347 52.5778 178.963 51.2926 177.208 50.3624C175.453 49.4492 173.445 48.9757 171.183 48.9757C168.922 48.9757 166.896 49.4323 165.124 50.3624C163.352 51.2757 161.951 52.5778 160.956 54.2521C159.96 55.9263 159.454 57.8543 159.454 60.0358C159.454 62.2174 159.96 64.1454 160.956 65.8196C161.968 67.4938 163.352 68.796 165.124 69.7431C166.896 70.6901 168.922 71.1637 171.183 71.1637Z" fill="white"/>
<path d="M212.616 78.3511C210.085 78.3511 207.874 77.9283 205.984 77.0658C204.077 76.2033 202.608 75.0195 201.596 73.4975C200.566 71.9754 200.06 70.2504 200.06 68.3225C200.06 66.3946 200.499 64.8049 201.376 63.3167C202.254 61.8116 203.688 60.6108 205.68 59.7145C207.671 58.8182 210.355 58.3616 213.73 58.3616H224.498V62.7924H213.983C210.912 62.7924 208.836 63.2998 207.756 64.3314C206.692 65.363 206.152 66.5975 206.152 68.0519C206.152 69.7262 206.811 71.0622 208.144 72.0769C209.46 73.0916 211.3 73.582 213.663 73.582C216.025 73.582 218 73.0747 219.721 72.0431C221.46 71.0115 222.709 69.5232 223.468 67.5446L224.683 71.7894C223.873 73.8019 222.439 75.3916 220.38 76.5754C218.321 77.7592 215.739 78.3342 212.616 78.3342V78.3511ZM223.772 77.9621V70.7578L223.451 69.4049V57.1271C223.451 54.5227 222.692 52.4933 221.173 51.0558C219.654 49.6183 217.376 48.908 214.338 48.908C212.329 48.908 210.355 49.2463 208.431 49.9058C206.507 50.5654 204.887 51.4617 203.553 52.5779L200.988 47.9441C202.743 46.5235 204.853 45.4412 207.3 44.6971C209.764 43.953 212.329 43.564 215.03 43.564C219.688 43.564 223.283 44.6971 225.797 46.9632C228.312 49.2294 229.578 52.7132 229.578 57.3807V77.9452H223.738L223.772 77.9621Z" fill="white"/>
<path d="M261.222 43.5809C264.007 43.5809 266.454 44.1221 268.563 45.1875C270.673 46.2529 272.344 47.8934 273.525 50.0749C274.707 52.2565 275.314 55.03 275.314 58.3616V77.9621H269.154V59.0719C269.154 55.7741 268.361 53.2881 266.757 51.6139C265.154 49.9396 262.893 49.111 259.99 49.111C257.813 49.111 255.906 49.5338 254.285 50.3963C252.665 51.2587 251.416 52.5102 250.539 54.1845C249.661 55.8587 249.222 57.9388 249.222 60.4248V77.9621H243.062V43.9022H248.969V53.0852L248.007 50.6499C249.121 48.4176 250.826 46.6926 253.138 45.4412C255.45 44.2066 258.133 43.5809 261.222 43.5809Z" fill="white"/>
<path d="M303.364 78.3511C299.988 78.3511 296.967 77.607 294.284 76.1018C291.617 74.5967 289.508 72.5335 287.972 69.8953C286.436 67.2571 285.66 64.2637 285.66 60.9322C285.66 57.6006 286.436 54.5565 287.972 51.969C289.508 49.3816 291.6 47.3353 294.25 45.8301C296.9 44.325 299.938 43.5809 303.364 43.5809C306.79 43.5809 309.76 44.325 312.443 45.7963C315.127 47.2676 317.203 49.3139 318.722 51.9352C320.241 54.5565 321 57.5498 321 60.9322C321 64.3145 320.241 67.3078 318.722 69.9291C317.203 72.5504 315.11 74.5967 312.443 76.1018C309.777 77.607 306.739 78.3511 303.364 78.3511ZM303.364 72.9563C305.541 72.9563 307.498 72.4658 309.237 71.485C310.975 70.5041 312.325 69.1004 313.304 67.274C314.283 65.4475 314.772 63.3505 314.772 60.9491C314.772 58.5476 314.283 56.3999 313.304 54.6241C312.325 52.8484 310.958 51.4617 309.237 50.4808C307.498 49.4999 305.558 49.0095 303.364 49.0095C301.17 49.0095 299.229 49.4999 297.524 50.4808C295.82 51.4617 294.453 52.8484 293.423 54.6241C292.394 56.3999 291.887 58.5138 291.887 60.9491C291.887 63.3843 292.394 65.4645 293.423 67.274C294.453 69.1004 295.82 70.5041 297.524 71.485C299.229 72.4658 301.186 72.9563 303.364 72.9563Z" fill="white"/>
<path d="M10.2617 23.6762C10.6836 24.5218 11.5443 25.0629 12.4894 25.0629C13.4346 25.0629 14.2953 24.5218 14.7172 23.6762L24.7421 3.61907C25.1303 2.84114 25.0797 1.92792 24.624 1.18381C24.1683 0.439701 23.3582 0 22.4975 0H2.4983C1.63757 0 0.827478 0.456612 0.3718 1.18381C-0.0838773 1.92792 -0.117631 2.84114 0.253662 3.61907L10.2617 23.6762ZM18.4639 5.00582L12.5063 16.9623L6.54876 5.00582H18.4639ZM12.5063 73.5315C15.8311 73.5315 19.0039 72.2124 21.3498 69.8617C23.6957 67.511 25.0121 64.3147 25.0121 61C25.0121 57.6853 23.6957 54.489 21.3498 52.1383C19.0039 49.7876 15.8142 48.4685 12.5063 48.4685C9.19844 48.4685 6.0087 49.7876 3.66281 52.1383C1.31691 54.489 0.000507809 57.6853 0.000507809 61C0.000507809 64.3147 1.31691 67.511 3.66281 69.8617C6.0087 72.2124 9.18157 73.5315 12.5063 73.5315ZM12.5063 53.4744C14.4978 53.4744 16.4049 54.2692 17.8226 55.6729C19.2234 57.0765 20.0166 59.0044 20.0166 61C20.0166 62.9956 19.2234 64.9066 17.8226 66.3271C16.4218 67.7308 14.4978 68.5257 12.5063 68.5257C10.5148 68.5257 8.60775 67.7308 7.19009 66.3271C5.7893 64.9235 4.99608 62.9956 4.99608 61C4.99608 59.0044 5.7893 57.0934 7.19009 55.6729C8.59087 54.2692 10.5148 53.4744 12.5063 53.4744ZM2.4983 122H22.5144C23.8983 122 25.0121 120.884 25.0121 119.497V99.44C25.0121 98.0532 23.8983 96.9371 22.5144 96.9371H2.4983C1.11439 96.9371 0.000507809 98.0532 0.000507809 99.44V119.497C0.000507809 120.884 1.11439 122 2.4983 122ZM4.99608 101.943H20.0166V116.994H4.99608V101.943ZM45.0282 106.966V63.5029H30.8516C29.4677 63.5029 28.3538 62.3867 28.3538 61C28.3538 59.6133 29.4677 58.4971 30.8516 58.4971H45.0282V15.0344H30.8516C29.4677 15.0344 28.3538 13.9182 28.3538 12.5315C28.3538 11.1447 29.4677 10.0286 30.8516 10.0286H47.526C48.9099 10.0286 50.0238 11.1447 50.0238 12.5315V58.4971H64.2004C65.5843 58.4971 66.6982 59.6133 66.6982 61C66.6982 62.3867 65.5843 63.5029 64.2004 63.5029H50.0238V109.469C50.0238 110.855 48.9099 111.971 47.526 111.971H30.8516C29.4677 111.971 28.3538 110.855 28.3538 109.469C28.3538 108.082 29.4677 106.966 30.8516 106.966H45.0282Z" fill="white"/>
</svg>
